<svg xmlns="http://www.w3.org/2000/svg" width="401" height="323.2861" viewBox="0 0 401 323.2861" style="background-color: white;">
  <title>Asset 1</title>
  <g id="Layer_2" data-name="Layer 2">
    <g id="Layer_1-2" data-name="Layer 1">
      <text transform="translate(0 15.0659)" style="font-size: 18px;font-family: MyriadPro-Regular, Myriad Pro"><tspan style="fill: blue">&lt;!DO<tspan x="39.2578" y="0" style="letter-spacing: 0.027994791666666668em">CT</tspan><tspan x="59.6514" y="0" style="letter-spacing: -0.006971571180555556em">Y</tspan><tspan x="69.2637" y="0">PE </tspan><tspan x="91.5117" y="0" style="letter-spacing: -0.004014756944444444em">h</tspan><tspan x="101.4292" y="0">tml&gt;</tspan><tspan x="0" y="21.6001">&lt;</tspan><tspan x="10.728" y="21.6001" style="letter-spacing: -0.003987630208333333em">h</tspan><tspan x="20.646" y="21.6001">tml&gt;</tspan><tspan x="0" y="43.2002" xml:space="preserve">    &lt;head&gt;</tspan></tspan><tspan x="0" y="64.8003" xml:space="preserve">        </tspan><tspan x="30.5273" y="64.8003" style="fill: blue">&lt;title&gt;</tspan><tspan x="81.3774" y="64.8003" style="letter-spacing: -0.024983723958333332em">P</tspan><tspan x="90.5039" y="64.8003">ersonal spa</tspan><tspan x="175.1924" y="64.8003" style="letter-spacing: -0.005995008680555556em">c</tspan><tspan x="183.1484" y="64.8003">e!</tspan><tspan x="196.3066" y="64.8003" style="fill: blue">&lt;/title&gt;</tspan><tspan x="0" y="86.3999" xml:space="preserve">        </tspan><tspan x="30.5273" y="86.3999" style="fill: blue">&lt;link </tspan><tspan x="71.9629" y="86.3999" style="fill: blue;letter-spacing: -0.009982638888888888em">r</tspan><tspan x="77.6689" y="86.3999" style="fill: blue">el=</tspan><tspan x="101.6631" y="86.3999" style="fill: blue;letter-spacing: -0.0719943576388889em">”</tspan><tspan x="106.7388" y="86.3999" style="fill: blue">s</tspan><tspan x="113.8667" y="86.3999" style="fill: blue;letter-spacing: 0.008978949652777778em">t</tspan><tspan x="119.9863" y="86.3999" style="fill: blue">yleshee</tspan><tspan x="176.8843" y="86.3999" style="fill: blue;letter-spacing: 0.02099609375em">t</tspan><tspan x="183.2202" y="86.3999" style="fill: blue;letter-spacing: -0.08599175347222222em">”</tspan><tspan x="188.0439" y="86.3999" xml:space="preserve" style="fill: blue"> h</tspan><tspan x="201.8496" y="86.3999" style="fill: blue;letter-spacing: -0.010009765625em">r</tspan><tspan x="207.5552" y="86.3999" style="fill: blue">ef=</tspan><tspan x="232.5571" y="86.3999" style="fill: blue;letter-spacing: -0.07698567708333333em">"</tspan><tspan x="237.543" y="86.3999" style="fill: blue">css/s</tspan><tspan x="273.1646" y="86.3999" style="fill: blue;letter-spacing: 0.008978949652777778em">t</tspan><tspan x="279.2842" y="86.3999" style="fill: blue">yl</tspan><tspan x="292.0103" y="86.3999" style="fill: blue;letter-spacing: -0.011990017361111112em">e</tspan><tspan x="300.8125" y="86.3999" style="fill: blue">.cs</tspan><tspan x="319.73" y="86.3999" style="fill: blue;letter-spacing: -0.017008463541666668em">s</tspan><tspan x="326.5518" y="86.3999" style="fill: blue;letter-spacing: -0.08599175347222222em">”</tspan><tspan x="331.3755" y="86.3999" xml:space="preserve" style="fill: blue"> /&gt;</tspan><tspan x="0" y="108" xml:space="preserve">    </tspan><tspan x="15.2637" y="108" style="fill: blue">&lt;/head&gt;</tspan><tspan style="fill: blue"><tspan x="0" y="129.6001" xml:space="preserve">    &lt;body&gt;</tspan></tspan><tspan x="0" y="151.2002" xml:space="preserve" style="fill: blue">        &lt;h1&gt;</tspan><tspan x="71.207" y="151.2002" style="letter-spacing: -0.024983723958333332em">P</tspan><tspan x="80.3335" y="151.2002">ersonal spa</tspan><tspan x="165.022" y="151.2002" style="letter-spacing: -0.005995008680555556em">c</tspan><tspan x="172.978" y="151.2002">e sh</tspan><tspan x="202.9297" y="151.2002" style="letter-spacing: -0.006998697916666667em">o</tspan><tspan x="212.6855" y="151.2002">w!</tspan><tspan x="230.0737" y="151.2002" style="fill: blue">&lt;/h1&gt;</tspan><tspan x="0" y="172.8003" xml:space="preserve">        </tspan><tspan x="30.5273" y="172.8003" style="fill: blue">&lt;img s</tspan><tspan x="81.4854" y="172.8003" style="fill: blue;letter-spacing: -0.009982638888888888em">r</tspan><tspan x="87.1914" y="172.8003" style="fill: blue">c=</tspan><tspan x="105.9834" y="172.8003" style="fill: blue;letter-spacing: -0.039008246527777776em">”</tspan><tspan x="111.6528" y="172.8003" style="fill: blue">img/personal-spa</tspan><tspan x="243.7529" y="172.8003" style="fill: blue;letter-spacing: -0.005995008680555556em">c</tspan><tspan x="251.709" y="172.8003" style="fill: blue;letter-spacing: -0.011990017361111112em">e</tspan><tspan x="260.5112" y="172.8003" style="fill: blue">.jp</tspan><tspan x="278.8525" y="172.8003" style="fill: blue;letter-spacing: -0.02197265625em">g</tspan><tspan x="288.519" y="172.8003" style="fill: blue">”/&gt;</tspan><tspan x="0" y="194.3999" xml:space="preserve">        </tspan><tspan x="30.5273" y="194.3999" style="fill: blue">&lt;p&gt;</tspan><tspan x="0" y="216" xml:space="preserve">            I take </tspan><tspan x="89.8184" y="216" style="letter-spacing: -0.012993706597222222em">m</tspan><tspan x="104.5967" y="216">y personal spa</tspan><tspan x="211.8208" y="216" style="letter-spacing: -0.005995008680555556em">c</tspan><tspan x="219.7769" y="216">e se</tspan><tspan x="248.7568" y="216" style="letter-spacing: 0.004014756944444444em">r</tspan><tspan x="254.7148" y="216">iousl</tspan><tspan x="290.1025" y="216" style="letter-spacing: -0.039008246527777776em">y</tspan><tspan x="297.8784" y="216">.</tspan><tspan x="0" y="237.6001" xml:space="preserve">           </tspan><tspan x="41.9751" y="237.6001" style="fill: blue">&lt;b&gt;</tspan><tspan x="73.6729" y="237.6001">Keep </tspan><tspan x="115.5225" y="237.6001" style="letter-spacing: -0.008002387152777778em">a</tspan><tspan x="124.0542" y="237.6001" style="letter-spacing: -0.003987630208333333em">w</tspan><tspan x="137.2305" y="237.6001" style="letter-spacing: -0.008002387152777778em">a</tspan><tspan x="145.7622" y="237.6001">y f</tspan><tspan x="163.312" y="237.6001" style="letter-spacing: -0.009982638888888888em">r</tspan><tspan x="169.0181" y="237.6001">om </tspan><tspan x="197.728" y="237.6001" style="letter-spacing: -0.012993706597222222em">m</tspan><tspan x="212.5063" y="237.6001">y personal spa</tspan><tspan x="319.7305" y="237.6001" style="letter-spacing: -0.005995008680555556em">c</tspan><tspan x="327.6865" y="237.6001">e!</tspan><tspan x="340.8447" y="237.6001" style="fill: blue">&lt;/b&gt;</tspan><tspan style="fill: blue"><tspan x="0" y="259.1997" xml:space="preserve">        &lt;/p&gt;</tspan></tspan><tspan x="0" y="280.8003" xml:space="preserve">    </tspan><tspan x="15.2637" y="280.8003" style="fill: blue">&lt;/body&gt;</tspan><tspan style="fill: blue"><tspan x="0" y="302.3999">&lt;/</tspan><tspan x="16.9019" y="302.3999" style="letter-spacing: -0.003987630208333333em">h</tspan><tspan x="26.8198" y="302.3999">tml&gt;</tspan></tspan></text>
    </g>
  </g>
</svg>
