<svg xmlns="http://www.w3.org/2000/svg" width="270.3369" height="112.4443" viewBox="0 0 270.3369 112.4443" style="background-color: white;">
  <title>Asset 2</title>
  <g id="Layer_2" data-name="Layer 2">
    <g id="Layer_1-2" data-name="Layer 1">
      <g>
        <g>
          <rect x="4.4502" y="10.3765" width="80" height="80" style="fill: #fff"/>
          <path d="M83.95,10.8765v79h-79v-79h79m1-1h-81v81h81v-81Z"/>
        </g>
        <g>
          <path d="M.4624,103.0225a4.4631,4.4631,0,0,1,1.3579-.5039,7.43,7.43,0,0,1,1.4839-.1538,2.6543,2.6543,0,0,1,1.1689.2236,1.898,1.898,0,0,1,.7139.5811,2.0468,2.0468,0,0,1,.35.812,4.676,4.676,0,0,1,.0913.917q0,.5325-.0283,1.1343t-.042,1.2036a10.1188,10.1188,0,0,0,.084,1.33H6.58v.91H4.7314l-.1255-1.05h-.07a3.5486,3.5486,0,0,1-.2529.3218,2.3176,2.3176,0,0,1-.4424.3853,2.859,2.859,0,0,1-.667.3286,2.7678,2.7678,0,0,1-.9268.14,2.3982,2.3982,0,0,1-1.6431-.5317A1.8423,1.8423,0,0,1,0,107.6147a2.1082,2.1082,0,0,1,.3159-1.19,1.9938,1.9938,0,0,1,.9058-.728,4.1612,4.1612,0,0,1,1.4258-.2944,9.627,9.627,0,0,1,1.8745.1123,4.9491,4.9491,0,0,0,.021-1.0713,1.4707,1.4707,0,0,0-.2246-.6787.94.94,0,0,0-.4917-.3569,2.49,2.49,0,0,0-.7793-.105,4.1336,4.1336,0,0,0-1.2085.1748q-.5757.175-1.0254.3569Zm2.0718,5.6421a2.0583,2.0583,0,0,0,.728-.126,2.2238,2.2238,0,0,0,.5879-.3218,2.14,2.14,0,0,0,.42-.4272,2.0286,2.0286,0,0,0,.252-.4409v-.98a7.92,7.92,0,0,0-1.3437-.126,3.7721,3.7721,0,0,0-1.064.1328,1.4863,1.4863,0,0,0-.7.4131,1.0473,1.0473,0,0,0-.252.728,1.1527,1.1527,0,0,0,.3149.8052A1.3836,1.3836,0,0,0,2.5342,108.6646Z"/>
          <path d="M8.2739,109.4766v-.938h1.89v-5.124h-1.89v-.938h2.6182l.2241.91h.07a5.0461,5.0461,0,0,1,1.064-.7422,2.9838,2.9838,0,0,1,1.4-.3081,1.4123,1.4123,0,0,1,.7632.1821,1.2087,1.2087,0,0,1,.4482.5322,2.791,2.791,0,0,1,.2168.8467,10.21,10.21,0,0,1,.0562,1.127l-.98.0142a3.5967,3.5967,0,0,0-.1753-1.3052.6361.6361,0,0,0-.6367-.417,2.3035,2.3035,0,0,0-.7842.126,2.5643,2.5643,0,0,0-.6089.3071,3.3017,3.3017,0,0,0-.4409.3628,2.1835,2.1835,0,0,0-.2661.3071v4.1191H13.93v.938Z"/>
          <path d="M23.1558,108.5947a3.5317,3.5317,0,0,1-.5947.42,4.3874,4.3874,0,0,1-.749.3359,5.5051,5.5051,0,0,1-.8472.2168,5.164,5.164,0,0,1-.8887.0771,3.9625,3.9625,0,0,1-1.4844-.2588,2.86,2.86,0,0,1-1.0776-.7422,3.2313,3.2313,0,0,1-.6582-1.1548,4.7663,4.7663,0,0,1-.2241-1.5122,4.6418,4.6418,0,0,1,.2451-1.5679,3.0336,3.0336,0,0,1,.707-1.1479,3.0735,3.0735,0,0,1,1.12-.707,4.18,4.18,0,0,1,1.47-.2451,4.472,4.472,0,0,1,1.1621.1538,2.2977,2.2977,0,0,1,1.0151.5811A2.7718,2.7718,0,0,1,23.03,104.22a5.4768,5.4768,0,0,1,.1685,1.939H17.7939a2.4346,2.4346,0,0,0,.6772,1.8828,2.5655,2.5655,0,0,0,1.8081.623,3.1219,3.1219,0,0,0,.7471-.0908,6.2051,6.2051,0,0,0,.7056-.2173,3.7308,3.7308,0,0,0,.5933-.28,2.57,2.57,0,0,0,.3979-.28Zm-2.9473-5.3623a3.7461,3.7461,0,0,0-.8721.0981,1.9816,1.9816,0,0,0-.7261.3291,1.8017,1.8017,0,0,0-.5161.6021,2.4093,2.4093,0,0,0-.2583.917h4.34a2.1513,2.1513,0,0,0-.5933-1.4351A1.8815,1.8815,0,0,0,20.2085,103.2324Z"/>
          <path d="M25.6621,103.0225a4.4631,4.4631,0,0,1,1.3579-.5039,7.43,7.43,0,0,1,1.4839-.1538,2.6543,2.6543,0,0,1,1.1689.2236,1.898,1.898,0,0,1,.7139.5811,2.0468,2.0468,0,0,1,.35.812,4.676,4.676,0,0,1,.0913.917q0,.5325-.0283,1.1343t-.042,1.2036a10.1188,10.1188,0,0,0,.084,1.33h.938v.91H29.9312l-.1255-1.05h-.07a3.5486,3.5486,0,0,1-.2529.3218,2.3176,2.3176,0,0,1-.4424.3853,2.859,2.859,0,0,1-.667.3286,2.7678,2.7678,0,0,1-.9268.14,2.3982,2.3982,0,0,1-1.6431-.5317,1.8423,1.8423,0,0,1-.604-1.4561,2.1082,2.1082,0,0,1,.3159-1.19,1.9938,1.9938,0,0,1,.9058-.728,4.1612,4.1612,0,0,1,1.4258-.2944,9.627,9.627,0,0,1,1.8745.1123,4.9491,4.9491,0,0,0,.021-1.0713,1.4707,1.4707,0,0,0-.2246-.6787.94.94,0,0,0-.4917-.3569,2.49,2.49,0,0,0-.7793-.105,4.1336,4.1336,0,0,0-1.2085.1748q-.5757.175-1.0254.3569Zm2.0718,5.6421a2.0583,2.0583,0,0,0,.728-.126,2.2238,2.2238,0,0,0,.5879-.3218,2.14,2.14,0,0,0,.42-.4272,2.0286,2.0286,0,0,0,.252-.4409v-.98a7.92,7.92,0,0,0-1.3437-.126,3.7721,3.7721,0,0,0-1.064.1328,1.4863,1.4863,0,0,0-.7.4131,1.0473,1.0473,0,0,0-.252.728,1.1527,1.1527,0,0,0,.3149.8052A1.3836,1.3836,0,0,0,27.7339,108.6646Z"/>
          <path d="M33.11,99.6768h7.28v2.562H39.354v-1.5264h-2.03v7.728h1.54v1.0361H34.6216V108.44h1.54v-7.728H34.146v1.5264H33.11Z"/>
          <path d="M41.8735,109.4766v-.938h1.89v-5.124h-1.89v-.938h2.6182l.2241.91h.07a5.0461,5.0461,0,0,1,1.064-.7422,2.9838,2.9838,0,0,1,1.4-.3081,1.4123,1.4123,0,0,1,.7632.1821,1.2087,1.2087,0,0,1,.4482.5322,2.791,2.791,0,0,1,.2168.8467,10.21,10.21,0,0,1,.0562,1.127l-.98.0142a3.5967,3.5967,0,0,0-.1753-1.3052.6361.6361,0,0,0-.6367-.417,2.3035,2.3035,0,0,0-.7842.126,2.5643,2.5643,0,0,0-.6089.3071,3.3017,3.3017,0,0,0-.4409.3628,2.1835,2.1835,0,0,0-.2661.3071v4.1191H47.53v.938Z"/>
          <path d="M50.82,109.4766v-.938h2.4355v-5.124H50.82v-.938h3.542v6.062h2.38v.938Zm2.0439-8.9878a.9273.9273,0,0,1,.252-.6514.8382.8382,0,0,1,.644-.2729.9221.9221,0,0,1,.6787.2729.8885.8885,0,0,1,.2729.6514.8053.8053,0,0,1-.2729.6157.9621.9621,0,0,1-.6787.252.8716.8716,0,0,1-.644-.252A.8373.8373,0,0,1,52.8638,100.4888Z"/>
          <path d="M59.2617,103.0225a4.4631,4.4631,0,0,1,1.3579-.5039,7.43,7.43,0,0,1,1.4839-.1538,2.6543,2.6543,0,0,1,1.1689.2236,1.898,1.898,0,0,1,.7139.5811,2.0468,2.0468,0,0,1,.35.812,4.676,4.676,0,0,1,.0913.917q0,.5325-.0283,1.1343t-.042,1.2036a10.1188,10.1188,0,0,0,.084,1.33h.938v.91H63.5308l-.1255-1.05h-.07a3.5486,3.5486,0,0,1-.2529.3218,2.3176,2.3176,0,0,1-.4424.3853,2.859,2.859,0,0,1-.667.3286,2.7678,2.7678,0,0,1-.9268.14,2.3982,2.3982,0,0,1-1.6431-.5317,1.8423,1.8423,0,0,1-.604-1.4561,2.1082,2.1082,0,0,1,.3159-1.19,1.9938,1.9938,0,0,1,.9058-.728,4.1612,4.1612,0,0,1,1.4258-.2944,9.627,9.627,0,0,1,1.8745.1123,4.9491,4.9491,0,0,0,.021-1.0713,1.4707,1.4707,0,0,0-.2246-.6787.94.94,0,0,0-.4917-.3569,2.49,2.49,0,0,0-.7793-.105,4.1336,4.1336,0,0,0-1.2085.1748q-.5757.175-1.0254.3569Zm2.0718,5.6421a2.0583,2.0583,0,0,0,.728-.126,2.2238,2.2238,0,0,0,.5879-.3218,2.14,2.14,0,0,0,.42-.4272,2.0286,2.0286,0,0,0,.252-.4409v-.98a7.92,7.92,0,0,0-1.3437-.126,3.7721,3.7721,0,0,0-1.064.1328,1.4863,1.4863,0,0,0-.7.4131,1.0473,1.0473,0,0,0-.252.728,1.1527,1.1527,0,0,0,.3149.8052A1.3836,1.3836,0,0,0,61.3335,108.6646Z"/>
          <path d="M67.4512,104.9268c0-.084-.002-.1938-.0068-.3291s-.0117-.2754-.021-.42-.021-.2871-.0352-.4272-.03-.2612-.0488-.3638h-.938v-.91h1.876l.126,1.1338h.07a2.3572,2.3572,0,0,1,.3706-.4687,2.9357,2.9357,0,0,1,.5391-.42,2.8747,2.8747,0,0,1,.686-.3013,2.81,2.81,0,0,1,.7979-.1118,4.2215,4.2215,0,0,1,1.1411.14,1.7348,1.7348,0,0,1,.8262.4971,2.3059,2.3059,0,0,1,.4971.9658,5.9522,5.9522,0,0,1,.168,1.5469v4.0181h-1.106v-3.7993a3.2635,3.2635,0,0,0-.377-1.7461,1.4979,1.4979,0,0,0-1.3667-.5864,1.7711,1.7711,0,0,0-.7046.1465,2.4438,2.4438,0,0,0-.6211.3843,2.6461,2.6461,0,0,0-.4883.5518,2.3214,2.3214,0,0,0-.3066.6636v4.3857H67.4512Z"/>
          <path d="M81.8848,109.8267a2.5205,2.5205,0,0,1-.252,1.1548,2.2693,2.2693,0,0,1-.6929.8193,3.1347,3.1347,0,0,1-1.0293.4829,4.8234,4.8234,0,0,1-1.2739.1606,5.4986,5.4986,0,0,1-1.4419-.168,4.3,4.3,0,0,1-1.064-.4336l.53-.9941a1.5779,1.5779,0,0,0,.3281.2168,3.4459,3.4459,0,0,0,.4673.1963,4.0511,4.0511,0,0,0,.5654.147,3.25,3.25,0,0,0,.5933.0557,3.9753,3.9753,0,0,0,1.0259-.1118,1.5279,1.5279,0,0,0,.6631-.35,1.3556,1.3556,0,0,0,.3628-.6157,3.3088,3.3088,0,0,0,.1118-.9243v-.7837h-.0557a2.181,2.181,0,0,1-.8237.7139,3.5048,3.5048,0,0,1-3.6377-.6372,4.2429,4.2429,0,0,1-.7471-2.7646,3.5922,3.5922,0,0,1,.9521-2.709,3.9277,3.9277,0,0,1,2.8281-.917,7.8621,7.8621,0,0,1,1.4771.1187,7.5986,7.5986,0,0,1,1.1128.3013Zm-3.1221-1.12a1.9161,1.9161,0,0,0,1.335-.4409,2.465,2.465,0,0,0,.6812-1.3511v-3.3179a4.0271,4.0271,0,0,0-1.71-.2939,2.33,2.33,0,0,0-1.752.6577,2.7935,2.7935,0,0,0-.64,2.0161,5.0364,5.0364,0,0,0,.1113,1.0991,2.5317,2.5317,0,0,0,.3545.8608,1.6722,1.6722,0,0,0,.64.5669A2.1293,2.1293,0,0,0,78.7627,108.7065Z"/>
          <path d="M84.6147,99.6768h2.3379v7.4478a1.93,1.93,0,0,0,.2871,1.2041,1.0316,1.0316,0,0,0,.8472.35,2.0364,2.0364,0,0,0,.749-.14,3.3146,3.3146,0,0,0,.791-.4761l.5039.77a3.1043,3.1043,0,0,1-.4917.35,3.677,3.677,0,0,1-.5479.2588,3.6286,3.6286,0,0,1-.562.1611,2.6856,2.6856,0,0,1-.52.0562,2.9783,2.9783,0,0,1-.9272-.1333,1.5837,1.5837,0,0,1-.6812-.4268,1.8931,1.8931,0,0,1-.4141-.7769,4.3492,4.3492,0,0,1-.1406-1.1973v-6.51H84.6147Z"/>
          <path d="M98.7544,108.5947a3.5317,3.5317,0,0,1-.5947.42,4.3874,4.3874,0,0,1-.749.3359,5.5051,5.5051,0,0,1-.8472.2168,5.164,5.164,0,0,1-.8887.0771,3.9625,3.9625,0,0,1-1.4844-.2588,2.86,2.86,0,0,1-1.0776-.7422,3.2313,3.2313,0,0,1-.6582-1.1548,4.7663,4.7663,0,0,1-.2241-1.5122,4.6418,4.6418,0,0,1,.2451-1.5679,3.0336,3.0336,0,0,1,.707-1.1479,3.0735,3.0735,0,0,1,1.12-.707,4.18,4.18,0,0,1,1.47-.2451,4.472,4.472,0,0,1,1.1621.1538,2.2977,2.2977,0,0,1,1.0151.5811,2.7718,2.7718,0,0,1,.6787,1.1763,5.4768,5.4768,0,0,1,.1685,1.939H93.3926a2.4346,2.4346,0,0,0,.6772,1.8828,2.5655,2.5655,0,0,0,1.8081.623,3.1219,3.1219,0,0,0,.7471-.0908,6.2051,6.2051,0,0,0,.7056-.2173,3.7308,3.7308,0,0,0,.5933-.28,2.57,2.57,0,0,0,.3979-.28Zm-2.9473-5.3623a3.7461,3.7461,0,0,0-.8721.0981,1.9816,1.9816,0,0,0-.7261.3291,1.8017,1.8017,0,0,0-.5161.6021,2.4093,2.4093,0,0,0-.2583.917h4.34a2.1513,2.1513,0,0,0-.5933-1.4351A1.8815,1.8815,0,0,0,95.8071,103.2324Z"/>
        </g>
        <g>
          <path d="M134.6646,12.9775a6.965,6.965,0,0,1-1.7568-.7065,5.0485,5.0485,0,0,1-1.4282-1.2251,5.7734,5.7734,0,0,1-.9658-1.8481,8.3739,8.3739,0,0,1-.3569-2.59,8.37,8.37,0,0,1,.3638-2.5972,6.0259,6.0259,0,0,1,.98-1.89A4.98,4.98,0,0,1,132.9355.875a6.0077,6.0077,0,0,1,1.729-.665l.35.8818a7.1174,7.1174,0,0,0-1.5176.623,3.9389,3.9389,0,0,0-1.1875,1.022,4.63,4.63,0,0,0-.7729,1.582,8.3083,8.3083,0,0,0-.2739,2.2891,7.1529,7.1529,0,0,0,.33,2.3169,4.914,4.914,0,0,0,.8711,1.5962,4.1628,4.1628,0,0,0,1.209.9937,4.98,4.98,0,0,0,1.3418.4971Z"/>
          <path d="M141.7627,4.55l1.4,3.8921h.0981l.9937-5.4321h1.022l-1.3716,7h-1.2461L141.3145,6.146h-.042l-1.4,3.8638h-1.2461l-1.47-7h1.0776l1.1343,5.46h.084l1.3579-3.92Z"/>
          <path d="M146.8867,10.01v-.938h2.4355V3.9478h-2.4355V3.01h3.542v6.062h2.38v.938Zm2.0439-8.9878a.9273.9273,0,0,1,.252-.6514.8382.8382,0,0,1,.644-.2729.9221.9221,0,0,1,.6787.2729.8885.8885,0,0,1,.2729.6514.8053.8053,0,0,1-.2729.6157.9621.9621,0,0,1-.6787.252.8716.8716,0,0,1-.644-.252A.8373.8373,0,0,1,148.9307,1.022Z"/>
          <path d="M158.6885.21H160.97V7.6157q0,.126.0142.3149c.0093.126.021.2593.0352.3989s.03.2778.0488.4131.0371.2544.0562.3569h.938v.91h-1.875l-.1411-1.0781h-.0557a2.4661,2.4661,0,0,1-.915.8892,2.7188,2.7188,0,0,1-1.4033.3569,2.8665,2.8665,0,0,1-2.3247-.8892,4.24,4.24,0,0,1-.7471-2.7646,4.4819,4.4819,0,0,1,.251-1.561,3.0212,3.0212,0,0,1,.7192-1.1343,3.1113,3.1113,0,0,1,1.124-.6929,4.2765,4.2765,0,0,1,1.4663-.2378q.293,0,.5234.0137c.1533.01.2954.0234.4258.042a2.93,2.93,0,0,1,.37.0771q.1743.0491.3838.105V1.1479h-1.1758Zm-.8335,9.03a1.9257,1.9257,0,0,0,1.34-.4409,2.3664,2.3664,0,0,0,.6694-1.3232V4.2275a2.164,2.164,0,0,0-.69-.3076,4.2206,4.2206,0,0,0-1.0117-.0981,2.3554,2.3554,0,0,0-1.7578.6509,2.83,2.83,0,0,0-.6421,2.0513,5.1857,5.1857,0,0,0,.105,1.0708,2.4154,2.4154,0,0,0,.3486.8608,1.7169,1.7169,0,0,0,.6484.5742A2.1306,2.1306,0,0,0,157.855,9.24Z"/>
          <path d="M162.65,3.01h1.666V1.6235l1.106-.3076V3.01H169.16v.938h-3.7378V7.252a2.0464,2.0464,0,0,0,.4951,1.5117,1.9275,1.9275,0,0,0,1.4165.49,2.3773,2.3773,0,0,0,1.0952-.2383,5.8664,5.8664,0,0,0,.8442-.5181l.3628.8262a3.93,3.93,0,0,1-1.1689.63,4.1817,4.1817,0,0,1-1.3931.2383,3.4075,3.4075,0,0,1-1.0571-.1611,2.4322,2.4322,0,0,1-.875-.4971,2.3746,2.3746,0,0,1-.6016-.8608,3.18,3.18,0,0,1-.2241-1.2529V3.9478H162.65Z"/>
          <path d="M170.6724.21h2.1841v3.668h.07a3.1325,3.1325,0,0,1,1.0078-.7632,3.3159,3.3159,0,0,1,1.4282-.2729,4.342,4.342,0,0,1,1.1689.14,1.679,1.679,0,0,1,.812.49,2.2255,2.2255,0,0,1,.4688.959,6.4431,6.4431,0,0,1,.1543,1.5469V10.01H176.86V6.188a6.9324,6.9324,0,0,0-.07-1.05,1.8416,1.8416,0,0,0-.2725-.749,1.26,1.26,0,0,0-.5508-.4551,2.2261,2.2261,0,0,0-.8926-.1538,2.139,2.139,0,0,0-.74.1328,2.4714,2.4714,0,0,0-.6626.3643,2.2831,2.2831,0,0,0-.5161.56,2.087,2.087,0,0,0-.3.7207V10.01h-1.0781V1.1479h-1.106Z"/>
          <path d="M190.4121.0137l1.2388,2.45L192.8618,0l.9663.5176-1.7,2.3662,2.8481-.21V3.8076l-2.7642-.2236,1.63,2.2539-.938.5459-1.3018-2.5059L190.37,6.3838l-1.0083-.5459L191.05,3.584l-2.7661.2236V2.6738l2.7661.2378L189.4458.56Z"/>
          <path d="M205.9937,9.002h2.1982V1.6377l-2.24,1.5679-.5459-.7979L208.4858.21h.7842V9.002h2.1558V10.01h-5.4321Z"/>
          <path d="M213.3857,5.11a9.8432,9.8432,0,0,1,.21-2.1353,4.863,4.863,0,0,1,.6313-1.5957,2.8544,2.8544,0,0,1,1.0659-.9941A3.2164,3.2164,0,0,1,216.8228.042a3.4453,3.4453,0,0,1,1.5923.3359,2.6947,2.6947,0,0,1,1.0591.98,4.5744,4.5744,0,0,1,.5894,1.5889,11.498,11.498,0,0,1,.1821,2.1631,9.8659,9.8659,0,0,1-.21,2.1348,4.8615,4.8615,0,0,1-.6313,1.5962,2.8544,2.8544,0,0,1-1.0659.9941,3.2164,3.2164,0,0,1-1.5293.3428,3.148,3.148,0,0,1-1.5781-.3711,2.9544,2.9544,0,0,1-1.0664-1.043,4.7831,4.7831,0,0,1-.5962-1.603A10.69,10.69,0,0,1,213.3857,5.11Zm1.1621,0q0,.35.021.6719t.0488.63l4.1719-3.78a2.78,2.78,0,0,0-.707-1.2041A1.7585,1.7585,0,0,0,216.8159.98a1.8024,1.8024,0,0,0-1.7573,1.0288A7.25,7.25,0,0,0,214.5479,5.11Zm4.5356,0A11.3741,11.3741,0,0,0,219,3.6958L214.8418,7.49a2.9534,2.9534,0,0,0,.7139,1.2739,1.6846,1.6846,0,0,0,1.2461.4761,1.8209,1.8209,0,0,0,1.7568-1.022A7.0714,7.0714,0,0,0,219.0835,5.11Z"/>
          <path d="M221.7856,5.11a9.8432,9.8432,0,0,1,.21-2.1353,4.863,4.863,0,0,1,.6313-1.5957,2.8544,2.8544,0,0,1,1.0659-.9941A3.2164,3.2164,0,0,1,225.2227.042a3.4453,3.4453,0,0,1,1.5923.3359,2.6947,2.6947,0,0,1,1.0591.98,4.5744,4.5744,0,0,1,.5894,1.5889,11.498,11.498,0,0,1,.1821,2.1631,9.8659,9.8659,0,0,1-.21,2.1348,4.8615,4.8615,0,0,1-.6313,1.5962,2.8544,2.8544,0,0,1-1.0659.9941,3.2164,3.2164,0,0,1-1.5293.3428,3.148,3.148,0,0,1-1.5781-.3711,2.9544,2.9544,0,0,1-1.0664-1.043,4.7832,4.7832,0,0,1-.5962-1.603A10.69,10.69,0,0,1,221.7856,5.11Zm1.1621,0q0,.35.021.6719t.0488.63l4.1719-3.78a2.78,2.78,0,0,0-.707-1.2041A1.7585,1.7585,0,0,0,225.2158.98a1.8024,1.8024,0,0,0-1.7573,1.0288A7.25,7.25,0,0,0,222.9478,5.11Zm4.5356,0a11.3741,11.3741,0,0,0-.084-1.4141L223.2417,7.49a2.9534,2.9534,0,0,0,.7139,1.2739,1.6846,1.6846,0,0,0,1.2461.4761,1.8209,1.8209,0,0,0,1.7568-1.022A7.0714,7.0714,0,0,0,227.4834,5.11Z"/>
          <path d="M231.4033,12.0117a4.9769,4.9769,0,0,0,1.3423-.4971,4.1674,4.1674,0,0,0,1.2085-.9937,4.914,4.914,0,0,0,.8711-1.5962,7.152,7.152,0,0,0,.3306-2.3169,8.3068,8.3068,0,0,0-.2744-2.2891,4.63,4.63,0,0,0-.7729-1.582,3.9371,3.9371,0,0,0-1.187-1.022,7.1321,7.1321,0,0,0-1.5181-.623l.35-.8818a5.9969,5.9969,0,0,1,1.729.665,4.98,4.98,0,0,1,1.4351,1.2456,6.0259,6.0259,0,0,1,.98,1.89,8.3693,8.3693,0,0,1,.3643,2.5972,8.3584,8.3584,0,0,1-.3574,2.59,5.7637,5.7637,0,0,1-.9658,1.8481,5.04,5.04,0,0,1-1.4277,1.2251,6.9757,6.9757,0,0,1-1.7573.7065Z"/>
          <path d="M252.5293.042l.8818.3916-5.11,11.5361-.8818-.3921Z"/>
          <path d="M270.0293,2.688a4.8848,4.8848,0,0,1-1.2217,2.87A23.7853,23.7853,0,0,1,265.395,9.002h4.9419V10.01h-6.23V9.002q.2659-.252.728-.6582t.9941-.9028q.5317-.4973,1.085-1.0713a12.1419,12.1419,0,0,0,1.001-1.1758,6.8786,6.8786,0,0,0,.728-1.2041,2.7527,2.7527,0,0,0,.28-1.1621,1.8851,1.8851,0,0,0-.4414-1.3228,1.702,1.702,0,0,0-1.3228-.4829,4.163,4.163,0,0,0-1.2739.168,3.0968,3.0968,0,0,0-.938.49l-.4761-.77a4.5264,4.5264,0,0,1,1.34-.6577,5.436,5.436,0,0,1,1.5508-.21,2.6125,2.6125,0,0,1,1.9932.7139A2.7008,2.7008,0,0,1,270.0293,2.688Z"/>
        </g>
        <line x1="203.4502" y1="15.3765" x2="203.4502" y2="36.3765" style="fill: none;stroke: #000;stroke-linecap: round;stroke-linejoin: round"/>
        <line x1="203.4502" y1="36.3765" x2="209.4502" y2="30.3765" style="fill: none;stroke: #000;stroke-linecap: round;stroke-linejoin: round"/>
        <line x1="203.4502" y1="36.3765" x2="197.4502" y2="30.3765" style="fill: none;stroke: #000;stroke-linecap: round;stroke-linejoin: round"/>
        <g>
          <path d="M144.6646,56.9775a6.965,6.965,0,0,1-1.7568-.7065,5.0485,5.0485,0,0,1-1.4282-1.2251,5.7734,5.7734,0,0,1-.9658-1.8481,9.5132,9.5132,0,0,1,.0068-5.187,6.0259,6.0259,0,0,1,.98-1.89,4.98,4.98,0,0,1,1.4351-1.2456,6.0077,6.0077,0,0,1,1.729-.665l.35.8818a7.1174,7.1174,0,0,0-1.5176.623,3.9389,3.9389,0,0,0-1.1875,1.022,4.63,4.63,0,0,0-.7729,1.582,8.3083,8.3083,0,0,0-.2739,2.2891,7.1529,7.1529,0,0,0,.33,2.3169,4.914,4.914,0,0,0,.8711,1.5962,4.1628,4.1628,0,0,0,1.209.9937,4.98,4.98,0,0,0,1.3418.4971Z"/>
          <path d="M150.6006,53.1978a3.4266,3.4266,0,0,0,.98-.1328,2.03,2.03,0,0,0,.7632-.4062,1.8571,1.8571,0,0,0,.49-.6787,2.3925,2.3925,0,0,0,.1753-.9521,1.7788,1.7788,0,0,0-.7212-1.5332,3.279,3.279,0,0,0-1.9668-.5249l-1.3164.07V44.21h4.8164v1.0078h-3.7661V48.06l.7021-.0278a3.7018,3.7018,0,0,1,2.4585.7559,2.6608,2.6608,0,0,1,.8994,2.1563,3.3109,3.3109,0,0,1-.2739,1.3857,2.9206,2.9206,0,0,1-.75,1.0151,3.2062,3.2062,0,0,1-1.13.623,4.6226,4.6226,0,0,1-1.4243.21,4.8723,4.8723,0,0,1-.8-.063,5.8627,5.8627,0,0,1-.688-.1538,4.1141,4.1141,0,0,1-.54-.1963,1.4533,1.4533,0,0,1-.33-.189l.4478-.91a5.6936,5.6936,0,0,0,.728.3364A3.3839,3.3839,0,0,0,150.6006,53.1978Z"/>
          <path d="M156.1865,49.11a9.8432,9.8432,0,0,1,.21-2.1353,4.863,4.863,0,0,1,.6313-1.5957,2.8544,2.8544,0,0,1,1.0659-.9941,3.2164,3.2164,0,0,1,1.5293-.3428,3.4453,3.4453,0,0,1,1.5923.3359,2.6947,2.6947,0,0,1,1.0591.98,4.5744,4.5744,0,0,1,.5894,1.5889,11.498,11.498,0,0,1,.1821,2.1631,9.8659,9.8659,0,0,1-.21,2.1348,4.8615,4.8615,0,0,1-.6313,1.5962,2.8544,2.8544,0,0,1-1.0659.9941,3.2164,3.2164,0,0,1-1.5293.3428,3.148,3.148,0,0,1-1.5781-.3711,2.9544,2.9544,0,0,1-1.0664-1.043,4.7831,4.7831,0,0,1-.5962-1.603A10.69,10.69,0,0,1,156.1865,49.11Zm1.1621,0q0,.35.021.6719t.0488.63l4.1719-3.78a2.78,2.78,0,0,0-.707-1.2041,1.7585,1.7585,0,0,0-1.2666-.4478,1.8024,1.8024,0,0,0-1.7573,1.0288A7.25,7.25,0,0,0,157.3486,49.11Zm4.5356,0a11.3741,11.3741,0,0,0-.084-1.4141L157.6426,51.49a2.9534,2.9534,0,0,0,.7139,1.2739,1.6846,1.6846,0,0,0,1.2461.4761,1.8209,1.8209,0,0,0,1.7568-1.022A7.0714,7.0714,0,0,0,161.8843,49.11Z"/>
          <path d="M175.2124,44.0137l1.2388,2.45L177.6621,44l.9663.5176-1.7,2.3662,2.8481-.21v1.1338l-2.7642-.2236,1.63,2.2539-.938.5459-1.3018-2.5059L175.17,50.3838l-1.0083-.5459,1.6885-2.2539-2.7661.2236V46.6738l2.7661.2378L174.2461,44.56Z"/>
          <path d="M190.7939,53.002h2.1982V45.6377l-2.24,1.5679-.5459-.7979,3.08-2.1978h.7842v8.792h2.1558V54.01h-5.4321Z"/>
          <path d="M198.186,49.11a9.8432,9.8432,0,0,1,.21-2.1353,4.863,4.863,0,0,1,.6313-1.5957,2.8544,2.8544,0,0,1,1.0659-.9941,3.2164,3.2164,0,0,1,1.5293-.3428,3.4453,3.4453,0,0,1,1.5923.3359,2.6947,2.6947,0,0,1,1.0591.98,4.5744,4.5744,0,0,1,.5894,1.5889,11.498,11.498,0,0,1,.1821,2.1631,9.8659,9.8659,0,0,1-.21,2.1348,4.8615,4.8615,0,0,1-.6313,1.5962,2.8544,2.8544,0,0,1-1.0659.9941,3.2164,3.2164,0,0,1-1.5293.3428,3.148,3.148,0,0,1-1.5781-.3711,2.9544,2.9544,0,0,1-1.0664-1.043,4.7831,4.7831,0,0,1-.5962-1.603A10.69,10.69,0,0,1,198.186,49.11Zm1.1621,0q0,.35.021.6719t.0488.63l4.1719-3.78a2.78,2.78,0,0,0-.707-1.2041,1.7585,1.7585,0,0,0-1.2666-.4478,1.8024,1.8024,0,0,0-1.7573,1.0288A7.25,7.25,0,0,0,199.3481,49.11Zm4.5356,0a11.3741,11.3741,0,0,0-.084-1.4141L199.6421,51.49a2.9534,2.9534,0,0,0,.7139,1.2739,1.6846,1.6846,0,0,0,1.2461.4761,1.8209,1.8209,0,0,0,1.7568-1.022A7.0714,7.0714,0,0,0,203.8838,49.11Z"/>
          <path d="M206.5859,49.11a9.8432,9.8432,0,0,1,.21-2.1353,4.863,4.863,0,0,1,.6313-1.5957,2.8544,2.8544,0,0,1,1.0659-.9941,3.2164,3.2164,0,0,1,1.5293-.3428,3.4453,3.4453,0,0,1,1.5923.3359,2.6947,2.6947,0,0,1,1.0591.98,4.5744,4.5744,0,0,1,.5894,1.5889,11.498,11.498,0,0,1,.1821,2.1631,9.8659,9.8659,0,0,1-.21,2.1348,4.8615,4.8615,0,0,1-.6313,1.5962,2.8544,2.8544,0,0,1-1.0659.9941,3.2164,3.2164,0,0,1-1.5293.3428,3.148,3.148,0,0,1-1.5781-.3711,2.9544,2.9544,0,0,1-1.0664-1.043,4.7831,4.7831,0,0,1-.5962-1.603A10.69,10.69,0,0,1,206.5859,49.11Zm1.1621,0q0,.35.021.6719t.0488.63l4.1719-3.78a2.78,2.78,0,0,0-.707-1.2041,1.7585,1.7585,0,0,0-1.2666-.4478,1.8024,1.8024,0,0,0-1.7573,1.0288A7.25,7.25,0,0,0,207.748,49.11Zm4.5356,0a11.3741,11.3741,0,0,0-.084-1.4141L208.042,51.49a2.9534,2.9534,0,0,0,.7139,1.2739,1.6846,1.6846,0,0,0,1.2461.4761,1.8209,1.8209,0,0,0,1.7568-1.022A7.0714,7.0714,0,0,0,212.2837,49.11Z"/>
          <path d="M216.2036,56.0117a4.9769,4.9769,0,0,0,1.3423-.4971,4.1674,4.1674,0,0,0,1.2085-.9937,4.914,4.914,0,0,0,.8711-1.5962,7.152,7.152,0,0,0,.3306-2.3169,8.3068,8.3068,0,0,0-.2744-2.2891,4.63,4.63,0,0,0-.7729-1.582,3.9371,3.9371,0,0,0-1.187-1.022,7.1321,7.1321,0,0,0-1.5181-.623l.35-.8818a5.9969,5.9969,0,0,1,1.729.665,4.98,4.98,0,0,1,1.4351,1.2456,6.0259,6.0259,0,0,1,.98,1.89,9.5008,9.5008,0,0,1,.0068,5.187,5.7637,5.7637,0,0,1-.9658,1.8481,5.04,5.04,0,0,1-1.4277,1.2251,6.9757,6.9757,0,0,1-1.7573.7065Z"/>
          <path d="M237.33,44.042l.8818.3916-5.11,11.5361-.8818-.3921Z"/>
          <path d="M254.83,46.688a4.8848,4.8848,0,0,1-1.2217,2.87,23.7853,23.7853,0,0,1-3.4126,3.4443h4.9419V54.01h-6.23V53.002q.2659-.252.728-.6582t.9941-.9028q.5317-.4973,1.085-1.0713a12.1419,12.1419,0,0,0,1.001-1.1758,6.8786,6.8786,0,0,0,.728-1.2041,2.7527,2.7527,0,0,0,.28-1.1621,1.8851,1.8851,0,0,0-.4414-1.3228,1.702,1.702,0,0,0-1.3228-.4829,4.163,4.163,0,0,0-1.2739.168,3.0968,3.0968,0,0,0-.938.49l-.4761-.77a4.5264,4.5264,0,0,1,1.34-.6577,5.436,5.436,0,0,1,1.5508-.21,2.6125,2.6125,0,0,1,1.9932.7139A2.7008,2.7008,0,0,1,254.83,46.688Z"/>
        </g>
        <line x1="204.4502" y1="59.3765" x2="204.4502" y2="80.3765" style="fill: none;stroke: #000;stroke-linecap: round;stroke-linejoin: round"/>
        <line x1="204.4502" y1="80.3765" x2="210.4502" y2="74.3765" style="fill: none;stroke: #000;stroke-linecap: round;stroke-linejoin: round"/>
        <line x1="204.4502" y1="80.3765" x2="198.4502" y2="74.3765" style="fill: none;stroke: #000;stroke-linecap: round;stroke-linejoin: round"/>
        <g>
          <path d="M169.2007,95.1978a3.4266,3.4266,0,0,0,.98-.1328,2.03,2.03,0,0,0,.7632-.4062,1.8571,1.8571,0,0,0,.49-.6787,2.3925,2.3925,0,0,0,.1753-.9521,1.7788,1.7788,0,0,0-.7212-1.5332,3.279,3.279,0,0,0-1.9668-.5249l-1.3164.07V86.21h4.8164v1.0078h-3.7661V90.06l.7021-.0278a3.7018,3.7018,0,0,1,2.4585.7559,2.6608,2.6608,0,0,1,.8994,2.1563,3.3109,3.3109,0,0,1-.2739,1.3857,2.9206,2.9206,0,0,1-.75,1.0151,3.2062,3.2062,0,0,1-1.13.623,4.6226,4.6226,0,0,1-1.4243.21,4.8723,4.8723,0,0,1-.8-.063,5.8627,5.8627,0,0,1-.688-.1538,4.1141,4.1141,0,0,1-.54-.1963,1.4533,1.4533,0,0,1-.33-.189l.4478-.91a5.6936,5.6936,0,0,0,.728.3364A3.3839,3.3839,0,0,0,169.2007,95.1978Z"/>
          <path d="M174.7866,91.11a9.8432,9.8432,0,0,1,.21-2.1353,4.863,4.863,0,0,1,.6313-1.5957,2.8544,2.8544,0,0,1,1.0659-.9941,3.2164,3.2164,0,0,1,1.5293-.3428,3.4453,3.4453,0,0,1,1.5923.3359,2.6947,2.6947,0,0,1,1.0591.98,4.5744,4.5744,0,0,1,.5894,1.5889,11.498,11.498,0,0,1,.1821,2.1631,9.8659,9.8659,0,0,1-.21,2.1348,4.8615,4.8615,0,0,1-.6313,1.5962,2.8544,2.8544,0,0,1-1.0659.9941,3.2164,3.2164,0,0,1-1.5293.3428,3.148,3.148,0,0,1-1.5781-.3711,2.9544,2.9544,0,0,1-1.0664-1.043,4.7831,4.7831,0,0,1-.5962-1.603A10.69,10.69,0,0,1,174.7866,91.11Zm1.1621,0q0,.35.021.6719t.0488.63l4.1719-3.78a2.78,2.78,0,0,0-.707-1.2041,1.7585,1.7585,0,0,0-1.2666-.4478,1.8024,1.8024,0,0,0-1.7573,1.0288A7.25,7.25,0,0,0,175.9487,91.11Zm4.5356,0a11.3741,11.3741,0,0,0-.084-1.4141L176.2427,93.49a2.9534,2.9534,0,0,0,.7139,1.2739,1.6846,1.6846,0,0,0,1.2461.4761,1.8209,1.8209,0,0,0,1.7568-1.022A7.0714,7.0714,0,0,0,180.4844,91.11Z"/>
          <path d="M183.1865,91.11a9.8432,9.8432,0,0,1,.21-2.1353,4.863,4.863,0,0,1,.6313-1.5957,2.8544,2.8544,0,0,1,1.0659-.9941,3.2164,3.2164,0,0,1,1.5293-.3428,3.4453,3.4453,0,0,1,1.5923.3359,2.6947,2.6947,0,0,1,1.0591.98,4.5744,4.5744,0,0,1,.5894,1.5889,11.498,11.498,0,0,1,.1821,2.1631,9.8659,9.8659,0,0,1-.21,2.1348,4.8615,4.8615,0,0,1-.6313,1.5962,2.8544,2.8544,0,0,1-1.0659.9941,3.2164,3.2164,0,0,1-1.5293.3428,3.148,3.148,0,0,1-1.5781-.3711,2.9544,2.9544,0,0,1-1.0664-1.043,4.7831,4.7831,0,0,1-.5962-1.603A10.69,10.69,0,0,1,183.1865,91.11Zm1.1621,0q0,.35.021.6719t.0488.63l4.1719-3.78a2.78,2.78,0,0,0-.707-1.2041,1.7585,1.7585,0,0,0-1.2666-.4478,1.8024,1.8024,0,0,0-1.7573,1.0288A7.25,7.25,0,0,0,184.3486,91.11Zm4.5356,0a11.3741,11.3741,0,0,0-.084-1.4141L184.6426,93.49a2.9534,2.9534,0,0,0,.7139,1.2739,1.6846,1.6846,0,0,0,1.2461.4761,1.8209,1.8209,0,0,0,1.7568-1.022A7.0714,7.0714,0,0,0,188.8843,91.11Z"/>
          <path d="M191.5864,91.11a9.8432,9.8432,0,0,1,.21-2.1353,4.863,4.863,0,0,1,.6313-1.5957,2.8544,2.8544,0,0,1,1.0659-.9941,3.2164,3.2164,0,0,1,1.5293-.3428,3.4453,3.4453,0,0,1,1.5923.3359,2.6947,2.6947,0,0,1,1.0591.98,4.5744,4.5744,0,0,1,.5894,1.5889,11.498,11.498,0,0,1,.1821,2.1631,9.8659,9.8659,0,0,1-.21,2.1348,4.8615,4.8615,0,0,1-.6313,1.5962,2.8544,2.8544,0,0,1-1.0659.9941,3.2164,3.2164,0,0,1-1.5293.3428,3.148,3.148,0,0,1-1.5781-.3711,2.9544,2.9544,0,0,1-1.0664-1.043,4.7831,4.7831,0,0,1-.5962-1.603A10.69,10.69,0,0,1,191.5864,91.11Zm1.1621,0q0,.35.021.6719t.0488.63l4.1719-3.78a2.78,2.78,0,0,0-.707-1.2041,1.7585,1.7585,0,0,0-1.2666-.4478,1.8024,1.8024,0,0,0-1.7573,1.0288A7.25,7.25,0,0,0,192.7485,91.11Zm4.5356,0a11.3741,11.3741,0,0,0-.084-1.4141L193.0425,93.49a2.9534,2.9534,0,0,0,.7139,1.2739,1.6846,1.6846,0,0,0,1.2461.4761,1.8209,1.8209,0,0,0,1.7568-1.022A7.0714,7.0714,0,0,0,197.2842,91.11Z"/>
          <path d="M213.93,86.042l.8818.3916-5.11,11.5361-.8818-.3921Z"/>
          <path d="M231.43,88.688a4.8848,4.8848,0,0,1-1.2217,2.87,23.7853,23.7853,0,0,1-3.4126,3.4443h4.9419V96.01h-6.23V95.002q.2659-.252.728-.6582t.9941-.9028q.5317-.4973,1.085-1.0713a12.1419,12.1419,0,0,0,1.001-1.1758,6.8786,6.8786,0,0,0,.728-1.2041,2.7527,2.7527,0,0,0,.28-1.1621,1.8851,1.8851,0,0,0-.4414-1.3228,1.702,1.702,0,0,0-1.3228-.4829,4.163,4.163,0,0,0-1.2739.168,3.0968,3.0968,0,0,0-.938.49l-.4761-.77a4.5264,4.5264,0,0,1,1.34-.6577,5.436,5.436,0,0,1,1.5508-.21,2.6125,2.6125,0,0,1,1.9932.7139A2.7008,2.7008,0,0,1,231.43,88.688Z"/>
        </g>
        <line x1="155.4502" y1="82.3765" x2="96.4863" y2="62.5642" style="fill: none;stroke: #000;stroke-linecap: round;stroke-linejoin: round"/>
        <line x1="96.4863" y1="62.5642" x2="100.2873" y2="70.1506" style="fill: none;stroke: #000;stroke-linecap: round;stroke-linejoin: round"/>
        <line x1="96.4863" y1="62.5642" x2="104.0727" y2="58.7633" style="fill: none;stroke: #000;stroke-linecap: round;stroke-linejoin: round"/>
        <g>
          <path d="M29.4712,44.5933a7.3207,7.3207,0,0,1-1.8325,4.3047A35.6613,35.6613,0,0,1,22.52,54.064h7.4131v1.5122H20.5884V54.064q.3984-.3779,1.0918-.9868t1.4912-1.3545q.7976-.7449,1.6274-1.6064A18.2815,18.2815,0,0,0,26.3,48.3521a10.3546,10.3546,0,0,0,1.0918-1.8057,4.1289,4.1289,0,0,0,.42-1.7432,2.8322,2.8322,0,0,0-.6611-1.9844,2.5548,2.5548,0,0,0-1.9849-.7246,6.2568,6.2568,0,0,0-1.9106.252,4.6557,4.6557,0,0,0-1.4072.7349l-.7139-1.1548a6.8141,6.8141,0,0,1,2.01-.9873,8.1661,8.1661,0,0,1,2.3267-.3149A3.9172,3.9172,0,0,1,28.46,41.6953,4.05,4.05,0,0,1,29.4712,44.5933Z"/>
          <path d="M36.9258,54.3584a5.1413,5.1413,0,0,0,1.47-.2,3.0464,3.0464,0,0,0,1.1445-.6089,2.7847,2.7847,0,0,0,.7349-1.0186,3.5883,3.5883,0,0,0,.2622-1.4282,2.6665,2.6665,0,0,0-1.0811-2.2993,4.9229,4.9229,0,0,0-2.9507-.7876l-1.9741.105V40.876h7.2241v1.5122H36.1069v4.2632l1.0537-.042a5.5528,5.5528,0,0,1,3.6875,1.1338,3.99,3.99,0,0,1,1.3486,3.2339,4.97,4.97,0,0,1-.4106,2.0791,4.3761,4.3761,0,0,1-1.126,1.5225,4.8011,4.8011,0,0,1-1.6943.9346,6.9462,6.9462,0,0,1-2.1367.3149,7.309,7.309,0,0,1-1.2-.0942,8.6751,8.6751,0,0,1-1.0317-.2314,6.2677,6.2677,0,0,1-.8105-.2939,2.197,2.197,0,0,1-.4941-.2832l.6719-1.3652a8.5186,8.5186,0,0,0,1.0918.5039A5.0756,5.0756,0,0,0,36.9258,54.3584Z"/>
          <path d="M45.3042,48.2261a14.7648,14.7648,0,0,1,.3159-3.2026,7.3028,7.3028,0,0,1,.9468-2.3936,4.2815,4.2815,0,0,1,1.6-1.4912A4.8227,4.8227,0,0,1,50.46,40.624a5.1686,5.1686,0,0,1,2.3882.5039,4.0555,4.0555,0,0,1,1.5889,1.47,6.878,6.878,0,0,1,.8838,2.3833,17.2307,17.2307,0,0,1,.2734,3.2446,14.7875,14.7875,0,0,1-.3154,3.2026,7.3272,7.3272,0,0,1-.9468,2.394,4.2874,4.2874,0,0,1-1.6,1.4907,4.8183,4.8183,0,0,1-2.2935.5146,4.7181,4.7181,0,0,1-2.3677-.5566,4.43,4.43,0,0,1-1.5991-1.5645,7.18,7.18,0,0,1-.8945-2.4043A16.0594,16.0594,0,0,1,45.3042,48.2261Zm1.7432,0q0,.5251.0317,1.0083t.0732.9448l6.2583-5.67A4.1773,4.1773,0,0,0,52.35,42.7031a2.6389,2.6389,0,0,0-1.9009-.6719,2.7031,2.7031,0,0,0-2.6353,1.5435A10.8733,10.8733,0,0,0,47.0474,48.2261Zm6.8042,0a17.12,17.12,0,0,0-.126-2.1211l-6.2373,5.6914A4.4316,4.4316,0,0,0,48.56,53.707a2.526,2.526,0,0,0,1.8687.7144,2.7328,2.7328,0,0,0,2.6357-1.5332A10.6106,10.6106,0,0,0,53.8516,48.2261Z"/>
          <path d="M57.9038,48.2261a14.7648,14.7648,0,0,1,.3159-3.2026,7.3028,7.3028,0,0,1,.9468-2.3936,4.2815,4.2815,0,0,1,1.6-1.4912A4.8227,4.8227,0,0,1,63.06,40.624a5.1686,5.1686,0,0,1,2.3882.5039,4.0555,4.0555,0,0,1,1.5889,1.47,6.878,6.878,0,0,1,.8838,2.3833,17.2307,17.2307,0,0,1,.2734,3.2446,14.7875,14.7875,0,0,1-.3154,3.2026,7.3272,7.3272,0,0,1-.9468,2.394,4.2874,4.2874,0,0,1-1.6,1.4907,4.8183,4.8183,0,0,1-2.2935.5146,4.7181,4.7181,0,0,1-2.3677-.5566,4.43,4.43,0,0,1-1.5991-1.5645,7.18,7.18,0,0,1-.8945-2.4043A16.0594,16.0594,0,0,1,57.9038,48.2261Zm1.7432,0q0,.5251.0317,1.0083t.0732.9448l6.2583-5.67A4.1773,4.1773,0,0,0,64.95,42.7031a2.6389,2.6389,0,0,0-1.9009-.6719,2.7031,2.7031,0,0,0-2.6353,1.5435A10.8733,10.8733,0,0,0,59.647,48.2261Zm6.8042,0a17.12,17.12,0,0,0-.126-2.1211l-6.2373,5.6914a4.4316,4.4316,0,0,0,1.0713,1.9106,2.526,2.526,0,0,0,1.8687.7144,2.7328,2.7328,0,0,0,2.6357-1.5332A10.6106,10.6106,0,0,0,66.4512,48.2261Z"/>
        </g>
      </g>
    </g>
  </g>
</svg>
